<svg width="133" height="26" viewBox="0 0 133 26" fill="none" xmlns="http://www.w3.org/2000/svg">
<g filter="url(#filter0_d)">
<path d="M129 0H4V18H129V0Z" fill="#A6594F"/>
<path d="M58.8246 0H4V18H58.8246V0Z" fill="#555555"/>
<path d="M27.953 10.993V8.482C27.953 7.774 28.142 7.255 28.52 6.925C28.904 6.589 29.405 6.421 30.023 6.421C30.659 6.421 31.175 6.577 31.571 6.889C31.973 7.201 32.174 7.621 32.174 8.149C32.174 8.365 32.126 8.512 32.03 8.59C31.94 8.668 31.793 8.707 31.589 8.707C31.205 8.707 31.01 8.584 31.004 8.338C30.986 8.074 30.911 7.861 30.779 7.699C30.647 7.531 30.41 7.447 30.068 7.447C29.438 7.447 29.123 7.792 29.123 8.482V10.993C29.123 11.683 29.435 12.028 30.059 12.028C30.359 12.028 30.59 11.941 30.752 11.767C30.92 11.593 31.004 11.335 31.004 10.993V10.462H30.275C30.161 10.462 30.071 10.417 30.005 10.327C29.945 10.237 29.915 10.129 29.915 10.003C29.915 9.883 29.948 9.778 30.014 9.688C30.08 9.592 30.167 9.544 30.275 9.544H31.805C31.919 9.544 32.009 9.583 32.075 9.661C32.141 9.733 32.174 9.82 32.174 9.922V10.993C32.174 11.707 31.982 12.229 31.598 12.559C31.214 12.889 30.701 13.054 30.059 13.054C29.417 13.054 28.904 12.889 28.52 12.559C28.142 12.229 27.953 11.707 27.953 10.993ZM32.9521 7.204C32.9521 7.048 33.0121 6.916 33.1321 6.808C33.2581 6.694 33.4111 6.637 33.5911 6.637C33.7651 6.637 33.9121 6.694 34.0321 6.808C34.1581 6.916 34.2211 7.048 34.2211 7.204C34.2211 7.354 34.1581 7.486 34.0321 7.6C33.9121 7.714 33.7651 7.771 33.5911 7.771C33.4111 7.771 33.2581 7.714 33.1321 7.6C33.0121 7.486 32.9521 7.354 32.9521 7.204ZM33.0151 12.631V9.085C33.0151 8.977 33.0691 8.89 33.1771 8.824C33.2851 8.758 33.4231 8.725 33.5911 8.725C33.7591 8.725 33.8971 8.758 34.0051 8.824C34.1191 8.89 34.1761 8.977 34.1761 9.085V12.631C34.1761 12.721 34.1161 12.805 33.9961 12.883C33.8821 12.961 33.7471 13 33.5911 13C33.4291 13 33.2911 12.964 33.1771 12.892C33.0691 12.814 33.0151 12.727 33.0151 12.631ZM35.0627 11.542V7.177C35.0627 7.075 35.1227 6.991 35.2427 6.925C35.3627 6.853 35.4947 6.817 35.6387 6.817C35.7947 6.817 35.9297 6.853 36.0437 6.925C36.1637 6.991 36.2237 7.075 36.2237 7.177V8.725H37.2857C37.3757 8.725 37.4477 8.767 37.5017 8.851C37.5557 8.935 37.5827 9.034 37.5827 9.148C37.5827 9.262 37.5557 9.361 37.5017 9.445C37.4477 9.529 37.3757 9.571 37.2857 9.571H36.2237V11.542C36.2237 11.716 36.2597 11.839 36.3317 11.911C36.4097 11.983 36.5417 12.019 36.7277 12.019H37.0787C37.2347 12.019 37.3547 12.067 37.4387 12.163C37.5287 12.259 37.5737 12.373 37.5737 12.505C37.5737 12.643 37.5287 12.76 37.4387 12.856C37.3547 12.952 37.2347 13 37.0787 13H36.7277C35.6177 13 35.0627 12.514 35.0627 11.542ZM38.2009 12.631V6.592C38.2009 6.484 38.2519 6.397 38.3539 6.331C38.4619 6.265 38.6029 6.232 38.7769 6.232C38.9389 6.232 39.0769 6.265 39.1909 6.331C39.3049 6.397 39.3619 6.484 39.3619 6.592V9.355C39.4519 9.163 39.5959 9.001 39.7939 8.869C39.9919 8.737 40.2259 8.671 40.4959 8.671C40.9099 8.671 41.2699 8.851 41.5759 9.211C41.8879 9.571 42.0439 10 42.0439 10.498V12.631C42.0439 12.745 41.9839 12.835 41.8639 12.901C41.7499 12.967 41.6149 13 41.4589 13C41.3089 13 41.1739 12.967 41.0539 12.901C40.9399 12.835 40.8829 12.745 40.8829 12.631V10.498C40.8829 10.294 40.8049 10.108 40.6489 9.94C40.4929 9.772 40.3099 9.688 40.0999 9.688C39.9019 9.688 39.7279 9.763 39.5779 9.913C39.4339 10.063 39.3619 10.258 39.3619 10.498V12.631C39.3619 12.721 39.3019 12.805 39.1819 12.883C39.0679 12.961 38.9329 13 38.7769 13C38.6149 13 38.4769 12.964 38.3629 12.892C38.2549 12.814 38.2009 12.727 38.2009 12.631ZM42.8666 11.254V9.094C42.8666 9.004 42.9236 8.92 43.0376 8.842C43.1576 8.764 43.2956 8.725 43.4516 8.725C43.6016 8.725 43.7336 8.764 43.8476 8.842C43.9676 8.92 44.0276 9.004 44.0276 9.094V11.254C44.0276 11.464 44.1056 11.653 44.2616 11.821C44.4176 11.983 44.6036 12.064 44.8196 12.064C45.0356 12.064 45.2186 11.983 45.3686 11.821C45.5246 11.653 45.6026 11.464 45.6026 11.254V9.085C45.6026 8.989 45.6596 8.905 45.7736 8.833C45.8936 8.761 46.0316 8.725 46.1876 8.725C46.3556 8.725 46.4936 8.761 46.6016 8.833C46.7096 8.905 46.7636 8.989 46.7636 9.085V11.254C46.7636 11.74 46.5716 12.166 46.1876 12.532C45.8036 12.898 45.3476 13.081 44.8196 13.081C44.2916 13.081 43.8326 12.898 43.4426 12.532C43.0586 12.166 42.8666 11.74 42.8666 11.254ZM47.6403 12.631V6.592C47.6403 6.484 47.6913 6.397 47.7933 6.331C47.9013 6.265 48.0393 6.232 48.2073 6.232C48.3753 6.232 48.5163 6.265 48.6303 6.331C48.7443 6.397 48.8013 6.484 48.8013 6.592V9.355C48.9033 9.163 49.0533 9.001 49.2513 8.869C49.4553 8.737 49.6893 8.671 49.9533 8.671C50.3913 8.671 50.7663 8.851 51.0783 9.211C51.3963 9.571 51.5553 10 51.5553 10.498V11.236C51.5553 11.722 51.3963 12.151 51.0783 12.523C50.7603 12.895 50.3943 13.081 49.9803 13.081C49.7103 13.081 49.4583 13.012 49.2243 12.874C48.9903 12.73 48.8253 12.562 48.7293 12.37V12.631C48.7293 12.721 48.6753 12.805 48.5673 12.883C48.4653 12.961 48.3453 13 48.2073 13C48.0453 13 47.9103 12.964 47.8023 12.892C47.6943 12.814 47.6403 12.727 47.6403 12.631ZM48.8013 11.398C48.8013 11.512 48.8823 11.653 49.0443 11.821C49.2123 11.983 49.4013 12.064 49.6113 12.064C49.8213 12.064 50.0043 11.98 50.1603 11.812C50.3163 11.638 50.3943 11.446 50.3943 11.236V10.498C50.3943 10.288 50.3163 10.102 50.1603 9.94C50.0043 9.772 49.8183 9.688 49.6023 9.688C49.3983 9.688 49.2123 9.763 49.0443 9.913C48.8823 10.063 48.8013 10.258 48.8013 10.498V11.398Z" fill="white"/>
<path d="M66.1581 12.514C66.1581 12.502 66.1641 12.472 66.1761 12.424L67.9131 6.763C67.9491 6.637 68.0361 6.541 68.1741 6.475C68.3181 6.403 68.4801 6.367 68.6601 6.367C68.8401 6.367 69.0021 6.403 69.1461 6.475C69.2901 6.541 69.3801 6.637 69.4161 6.763L71.1531 12.424C71.1651 12.472 71.1711 12.502 71.1711 12.514C71.1711 12.646 71.0901 12.76 70.9281 12.856C70.7661 12.952 70.6011 13 70.4331 13C70.2111 13 70.0791 12.922 70.0371 12.766L69.6951 11.569H67.6341L67.2921 12.766C67.2501 12.922 67.1181 13 66.8961 13C66.7221 13 66.5541 12.955 66.3921 12.865C66.2361 12.769 66.1581 12.652 66.1581 12.514ZM67.8771 10.651H69.4431L68.6601 7.888L67.8771 10.651ZM71.7939 12.631V6.79C71.7939 6.67 71.8509 6.58 71.9649 6.52C72.0789 6.454 72.2169 6.421 72.3789 6.421C72.5949 6.421 72.7599 6.46 72.8739 6.538C72.9879 6.616 73.1139 6.784 73.2519 7.042L74.9889 10.399V6.781C74.9889 6.661 75.0459 6.571 75.1599 6.511C75.2739 6.451 75.4119 6.421 75.5739 6.421C75.7359 6.421 75.8739 6.451 75.9879 6.511C76.1019 6.571 76.1589 6.661 76.1589 6.781V12.631C76.1589 12.745 76.0989 12.835 75.9789 12.901C75.8649 12.967 75.7299 13 75.5739 13C75.2559 13 75.0309 12.877 74.8989 12.631L72.9639 9.013V12.631C72.9639 12.745 72.9039 12.835 72.7839 12.901C72.6699 12.967 72.5349 13 72.3789 13C72.2169 13 72.0789 12.967 71.9649 12.901C71.8509 12.835 71.7939 12.745 71.7939 12.631ZM77.0901 7.204C77.0901 7.048 77.1501 6.916 77.2701 6.808C77.3961 6.694 77.5491 6.637 77.7291 6.637C77.9031 6.637 78.0501 6.694 78.1701 6.808C78.2961 6.916 78.3591 7.048 78.3591 7.204C78.3591 7.354 78.2961 7.486 78.1701 7.6C78.0501 7.714 77.9031 7.771 77.7291 7.771C77.5491 7.771 77.3961 7.714 77.2701 7.6C77.1501 7.486 77.0901 7.354 77.0901 7.204ZM77.1531 12.631V9.085C77.1531 8.977 77.2071 8.89 77.3151 8.824C77.4231 8.758 77.5611 8.725 77.7291 8.725C77.8971 8.725 78.0351 8.758 78.1431 8.824C78.2571 8.89 78.3141 8.977 78.3141 9.085V12.631C78.3141 12.721 78.2541 12.805 78.1341 12.883C78.0201 12.961 77.8851 13 77.7291 13C77.5671 13 77.4291 12.964 77.3151 12.892C77.2071 12.814 77.1531 12.727 77.1531 12.631ZM79.2188 12.631V6.592C79.2188 6.484 79.2698 6.397 79.3718 6.331C79.4798 6.265 79.6178 6.232 79.7858 6.232C79.9538 6.232 80.0948 6.265 80.2088 6.331C80.3228 6.397 80.3798 6.484 80.3798 6.592V10.363L82.0718 8.77C82.1438 8.71 82.2218 8.68 82.3058 8.68C82.4318 8.68 82.5578 8.74 82.6838 8.86C82.8098 8.98 82.8728 9.106 82.8728 9.238C82.8728 9.316 82.8398 9.388 82.7738 9.454L81.7118 10.417L83.0348 12.307C83.0768 12.367 83.0978 12.43 83.0978 12.496C83.0978 12.628 83.0228 12.757 82.8728 12.883C82.7288 13.009 82.5848 13.072 82.4408 13.072C82.3208 13.072 82.2248 13.021 82.1528 12.919L80.9378 11.128L80.3798 11.641V12.631C80.3798 12.721 80.3198 12.805 80.1998 12.883C80.0798 12.961 79.9418 13 79.7858 13C79.6238 13 79.4888 12.964 79.3808 12.892C79.2728 12.814 79.2188 12.727 79.2188 12.631ZM83.6485 12.631V6.592C83.6485 6.484 83.6995 6.397 83.8015 6.331C83.9095 6.265 84.0505 6.232 84.2245 6.232C84.3865 6.232 84.5245 6.265 84.6385 6.331C84.7525 6.397 84.8095 6.484 84.8095 6.592V9.355C84.8995 9.163 85.0435 9.001 85.2415 8.869C85.4395 8.737 85.6735 8.671 85.9435 8.671C86.3575 8.671 86.7175 8.851 87.0235 9.211C87.3355 9.571 87.4915 10 87.4915 10.498V12.631C87.4915 12.745 87.4315 12.835 87.3115 12.901C87.1975 12.967 87.0625 13 86.9065 13C86.7565 13 86.6215 12.967 86.5015 12.901C86.3875 12.835 86.3305 12.745 86.3305 12.631V10.498C86.3305 10.294 86.2525 10.108 86.0965 9.94C85.9405 9.772 85.7575 9.688 85.5475 9.688C85.3495 9.688 85.1755 9.763 85.0255 9.913C84.8815 10.063 84.8095 10.258 84.8095 10.498V12.631C84.8095 12.721 84.7495 12.805 84.6295 12.883C84.5155 12.961 84.3805 13 84.2245 13C84.0625 13 83.9245 12.964 83.8105 12.892C83.7025 12.814 83.6485 12.727 83.6485 12.631ZM88.2962 7.204C88.2962 7.048 88.3562 6.916 88.4762 6.808C88.6022 6.694 88.7552 6.637 88.9352 6.637C89.1092 6.637 89.2562 6.694 89.3762 6.808C89.5022 6.916 89.5652 7.048 89.5652 7.204C89.5652 7.354 89.5022 7.486 89.3762 7.6C89.2562 7.714 89.1092 7.771 88.9352 7.771C88.7552 7.771 88.6022 7.714 88.4762 7.6C88.3562 7.486 88.2962 7.354 88.2962 7.204ZM88.3592 12.631V9.085C88.3592 8.977 88.4132 8.89 88.5212 8.824C88.6292 8.758 88.7672 8.725 88.9352 8.725C89.1032 8.725 89.2412 8.758 89.3492 8.824C89.4632 8.89 89.5202 8.977 89.5202 9.085V12.631C89.5202 12.721 89.4602 12.805 89.3402 12.883C89.2262 12.961 89.0912 13 88.9352 13C88.7732 13 88.6352 12.964 88.5212 12.892C88.4132 12.814 88.3592 12.727 88.3592 12.631ZM90.4968 12.631V6.592C90.4968 6.484 90.5478 6.397 90.6498 6.331C90.7578 6.265 90.8988 6.232 91.0728 6.232C91.2348 6.232 91.3728 6.265 91.4868 6.331C91.6008 6.397 91.6578 6.484 91.6578 6.592V12.631C91.6578 12.721 91.5978 12.805 91.4778 12.883C91.3638 12.961 91.2288 13 91.0728 13C90.9108 13 90.7728 12.964 90.6588 12.892C90.5508 12.814 90.4968 12.727 90.4968 12.631ZM92.2705 12.514C92.2705 12.502 92.2765 12.472 92.2885 12.424L94.0255 6.763C94.0615 6.637 94.1485 6.541 94.2865 6.475C94.4305 6.403 94.5925 6.367 94.7725 6.367C94.9525 6.367 95.1145 6.403 95.2585 6.475C95.4025 6.541 95.4925 6.637 95.5285 6.763L97.2655 12.424C97.2775 12.472 97.2835 12.502 97.2835 12.514C97.2835 12.646 97.2025 12.76 97.0405 12.856C96.8785 12.952 96.7135 13 96.5455 13C96.3235 13 96.1915 12.922 96.1495 12.766L95.8075 11.569H93.7465L93.4045 12.766C93.3625 12.922 93.2305 13 93.0085 13C92.8345 13 92.6665 12.955 92.5045 12.865C92.3485 12.769 92.2705 12.652 92.2705 12.514ZM93.9895 10.651H95.5555L94.7725 7.888L93.9895 10.651ZM97.5012 13.72C97.5012 13.306 97.7202 12.988 98.1582 12.766C97.9062 12.646 97.7802 12.454 97.7802 12.19C97.7802 11.926 97.9332 11.692 98.2392 11.488C97.8672 11.2 97.6812 10.819 97.6812 10.345V10.156C97.6812 9.718 97.8432 9.361 98.1672 9.085C98.4912 8.809 98.9142 8.671 99.4362 8.671C99.8322 8.671 100.174 8.758 100.462 8.932C100.642 8.524 100.825 8.32 101.011 8.32C101.149 8.32 101.26 8.359 101.344 8.437C101.428 8.515 101.47 8.596 101.47 8.68C101.47 8.776 101.422 8.86 101.326 8.932C101.104 9.088 100.963 9.202 100.903 9.274C101.113 9.52 101.218 9.814 101.218 10.156V10.345C101.218 10.777 101.05 11.137 100.714 11.425C100.384 11.707 99.9582 11.848 99.4362 11.848C99.2202 11.848 99.0252 11.821 98.8512 11.767C98.7792 11.827 98.7432 11.887 98.7432 11.947C98.7432 12.049 98.8362 12.124 99.0222 12.172C99.2082 12.22 99.4332 12.262 99.6972 12.298C99.9672 12.328 100.234 12.376 100.498 12.442C100.762 12.502 100.987 12.628 101.173 12.82C101.359 13.012 101.452 13.264 101.452 13.576C101.452 14.044 101.263 14.395 100.885 14.629C100.507 14.869 100.042 14.989 99.4902 14.989C98.9322 14.989 98.4612 14.875 98.0772 14.647C97.6932 14.419 97.5012 14.11 97.5012 13.72ZM98.5992 13.603C98.5992 13.801 98.6832 13.957 98.8512 14.071C99.0192 14.185 99.2262 14.242 99.4722 14.242C99.7182 14.242 99.9222 14.185 100.084 14.071C100.246 13.957 100.327 13.804 100.327 13.612C100.327 13.528 100.312 13.453 100.282 13.387C100.252 13.327 100.198 13.276 100.12 13.234C100.048 13.192 99.9822 13.156 99.9222 13.126C99.8682 13.102 99.7782 13.078 99.6522 13.054C99.5262 13.036 99.4332 13.024 99.3732 13.018C99.3192 13.012 99.2232 13 99.0852 12.982C98.7612 13.132 98.5992 13.339 98.5992 13.603ZM98.8062 10.336C98.8062 10.57 98.8632 10.765 98.9772 10.921C99.0912 11.071 99.2502 11.146 99.4542 11.146C99.6522 11.146 99.8082 11.074 99.9222 10.93C100.036 10.78 100.093 10.585 100.093 10.345V10.156C100.093 9.934 100.033 9.748 99.9132 9.598C99.7992 9.448 99.6432 9.373 99.4452 9.373C99.2472 9.373 99.0912 9.448 98.9772 9.598C98.8632 9.742 98.8062 9.928 98.8062 10.156V10.336ZM101.792 11.884C101.792 11.398 101.972 11.056 102.332 10.858C102.692 10.66 103.211 10.561 103.889 10.561H104.258V10.444C104.258 10.222 104.192 10.03 104.06 9.868C103.934 9.7 103.736 9.616 103.466 9.616C103.196 9.616 102.965 9.664 102.773 9.76C102.581 9.85 102.47 9.895 102.44 9.895C102.32 9.895 102.224 9.835 102.152 9.715C102.08 9.595 102.044 9.463 102.044 9.319C102.044 9.145 102.197 8.995 102.503 8.869C102.815 8.737 103.142 8.671 103.484 8.671C104.138 8.671 104.624 8.839 104.942 9.175C105.26 9.505 105.419 9.922 105.419 10.426V12.631C105.419 12.733 105.365 12.82 105.257 12.892C105.149 12.964 105.014 13 104.852 13C104.702 13 104.576 12.964 104.474 12.892C104.378 12.82 104.33 12.733 104.33 12.631V12.37C103.916 12.844 103.46 13.081 102.962 13.081C102.62 13.081 102.338 12.979 102.116 12.775C101.9 12.571 101.792 12.274 101.792 11.884ZM102.953 11.731C102.953 11.893 102.995 12.016 103.079 12.1C103.169 12.178 103.286 12.217 103.43 12.217C103.622 12.217 103.808 12.127 103.988 11.947C104.168 11.767 104.258 11.569 104.258 11.353V11.164H104.123C103.757 11.164 103.469 11.203 103.259 11.281C103.055 11.353 102.953 11.503 102.953 11.731ZM106.28 12.631V9.085C106.28 8.977 106.331 8.89 106.433 8.824C106.541 8.758 106.679 8.725 106.847 8.725C106.997 8.725 107.12 8.758 107.216 8.824C107.318 8.89 107.369 8.977 107.369 9.085V9.454C107.465 9.244 107.615 9.061 107.819 8.905C108.023 8.749 108.242 8.671 108.476 8.671H108.755C108.863 8.671 108.959 8.722 109.043 8.824C109.133 8.926 109.178 9.043 109.178 9.175C109.178 9.313 109.133 9.433 109.043 9.535C108.959 9.637 108.863 9.688 108.755 9.688H108.476C108.2 9.688 107.957 9.811 107.747 10.057C107.543 10.303 107.441 10.624 107.441 11.02V12.631C107.441 12.721 107.381 12.805 107.261 12.883C107.141 12.961 107.003 13 106.847 13C106.685 13 106.55 12.964 106.442 12.892C106.334 12.814 106.28 12.727 106.28 12.631ZM109.286 9.157C109.286 9.025 109.37 8.914 109.538 8.824C109.706 8.728 109.874 8.68 110.042 8.68C110.216 8.68 110.327 8.743 110.375 8.869L111.275 11.425L111.95 9.202C111.998 9.046 112.13 8.968 112.346 8.968C112.562 8.968 112.694 9.046 112.742 9.202L113.408 11.434L114.317 8.869C114.365 8.743 114.476 8.68 114.65 8.68C114.812 8.68 114.977 8.728 115.145 8.824C115.313 8.92 115.397 9.034 115.397 9.166C115.397 9.232 115.385 9.286 115.361 9.328L113.975 12.892C113.921 13.03 113.768 13.099 113.516 13.099C113.252 13.099 113.093 13.03 113.039 12.892L112.346 10.93L111.662 12.883C111.608 13.027 111.443 13.099 111.167 13.099C110.921 13.099 110.771 13.027 110.717 12.883L109.331 9.328C109.301 9.268 109.286 9.211 109.286 9.157ZM115.661 11.884C115.661 11.398 115.841 11.056 116.201 10.858C116.561 10.66 117.08 10.561 117.758 10.561H118.127V10.444C118.127 10.222 118.061 10.03 117.929 9.868C117.803 9.7 117.605 9.616 117.335 9.616C117.065 9.616 116.834 9.664 116.642 9.76C116.45 9.85 116.339 9.895 116.309 9.895C116.189 9.895 116.093 9.835 116.021 9.715C115.949 9.595 115.913 9.463 115.913 9.319C115.913 9.145 116.066 8.995 116.372 8.869C116.684 8.737 117.011 8.671 117.353 8.671C118.007 8.671 118.493 8.839 118.811 9.175C119.129 9.505 119.288 9.922 119.288 10.426V12.631C119.288 12.733 119.234 12.82 119.126 12.892C119.018 12.964 118.883 13 118.721 13C118.571 13 118.445 12.964 118.343 12.892C118.247 12.82 118.199 12.733 118.199 12.631V12.37C117.785 12.844 117.329 13.081 116.831 13.081C116.489 13.081 116.207 12.979 115.985 12.775C115.769 12.571 115.661 12.274 115.661 11.884ZM116.822 11.731C116.822 11.893 116.864 12.016 116.948 12.1C117.038 12.178 117.155 12.217 117.299 12.217C117.491 12.217 117.677 12.127 117.857 11.947C118.037 11.767 118.127 11.569 118.127 11.353V11.164H117.992C117.626 11.164 117.338 11.203 117.128 11.281C116.924 11.353 116.822 11.503 116.822 11.731ZM120.23 12.631V6.592C120.23 6.484 120.281 6.397 120.383 6.331C120.491 6.265 120.632 6.232 120.806 6.232C120.968 6.232 121.106 6.265 121.22 6.331C121.334 6.397 121.391 6.484 121.391 6.592V12.631C121.391 12.721 121.331 12.805 121.211 12.883C121.097 12.961 120.962 13 120.806 13C120.644 13 120.506 12.964 120.392 12.892C120.284 12.814 120.23 12.727 120.23 12.631Z" fill="white"/>
<path d="M13.6068 12.0404C13.5373 12.0533 13.5069 12.086 13.5156 12.138C13.5243 12.19 13.5634 12.2074 13.6328 12.19C13.7023 12.1727 13.7327 12.1423 13.7239 12.0989C13.7153 12.0512 13.6763 12.0316 13.6068 12.0404Z" fill="black"/>
<path d="M13.2357 12.0925C13.1663 12.0925 13.1316 12.1162 13.1316 12.1641C13.1316 12.2205 13.1685 12.2443 13.2422 12.2356C13.3117 12.2356 13.3464 12.2118 13.3464 12.1641C13.3464 12.1077 13.3095 12.0838 13.2357 12.0925Z" fill="black"/>
<path d="M12.7279 12.0728C12.7106 12.1206 12.7388 12.1531 12.8125 12.1705C12.8776 12.1964 12.9189 12.1835 12.9362 12.1314C12.9493 12.0837 12.921 12.0491 12.8516 12.0273C12.7865 12.0099 12.7453 12.0249 12.7279 12.0728Z" fill="black"/>
<path d="M19.4499 4.55008C19.0831 4.18338 18.6416 4 18.125 4H11.875C11.3585 4 10.9169 4.18338 10.5501 4.55008C10.1834 4.91684 10 5.35852 10 5.87498V12.125C10 12.6415 10.1834 13.0831 10.5501 13.4498C10.9168 13.8166 11.3585 14 11.875 14H13.3333C13.4287 14 13.5004 13.9967 13.5481 13.9903C13.5958 13.9838 13.6435 13.9555 13.6913 13.9056C13.7391 13.8557 13.7629 13.783 13.7629 13.6875C13.7629 13.6746 13.7618 13.5269 13.7596 13.2448C13.7574 12.9626 13.7563 12.7391 13.7563 12.5741L13.6066 12.6002C13.5111 12.6175 13.3907 12.6251 13.2453 12.623C13.0999 12.6208 12.949 12.6056 12.7928 12.5774C12.6365 12.5491 12.4912 12.4841 12.3566 12.3822C12.2221 12.2801 12.1266 12.1466 12.0702 11.9818L12.0051 11.8319C11.9617 11.7322 11.8933 11.6215 11.8 11.5C11.7067 11.3785 11.6123 11.296 11.5168 11.2526L11.4712 11.22C11.4409 11.1983 11.4127 11.1722 11.3866 11.1418C11.3606 11.1114 11.3411 11.081 11.3281 11.0507C11.315 11.0202 11.3258 10.9953 11.3606 10.9757C11.3953 10.9562 11.4582 10.9465 11.5494 10.9465L11.6796 10.966C11.7664 10.9834 11.8738 11.0354 12.0019 11.1222C12.1299 11.209 12.2351 11.3219 12.3176 11.4607C12.4175 11.6387 12.5378 11.7743 12.6789 11.8676C12.82 11.961 12.9621 12.0077 13.1053 12.0077C13.2485 12.0077 13.3722 11.9968 13.4764 11.9752C13.5805 11.9534 13.6782 11.9208 13.7694 11.8774C13.8084 11.5867 13.9148 11.363 14.0884 11.2068C13.841 11.1807 13.6186 11.1417 13.421 11.0896C13.2236 11.0374 13.0196 10.9529 12.8091 10.8356C12.5985 10.7184 12.4239 10.5731 12.285 10.3994C12.1461 10.2257 12.0321 9.99785 11.9432 9.71582C11.8543 9.43363 11.8098 9.10807 11.8098 8.73919C11.8098 8.21405 11.9813 7.76693 12.3241 7.39805C12.1635 7.0031 12.1787 6.56044 12.3697 6.06995C12.4956 6.03086 12.6822 6.06019 12.9296 6.15786C13.177 6.25559 13.3582 6.33916 13.4732 6.40851C13.5883 6.47787 13.6805 6.53652 13.7499 6.58432C14.1537 6.47147 14.5703 6.41505 15 6.41505C15.4296 6.41505 15.8463 6.47147 16.25 6.58432L16.4974 6.42807C16.6668 6.32386 16.8664 6.22838 17.0965 6.14162C17.3265 6.05483 17.5022 6.03093 17.6238 6.07002C17.8191 6.56051 17.8365 7.00317 17.6758 7.39809C18.0187 7.76702 18.1902 8.21412 18.1902 8.73925C18.1902 9.10821 18.1457 9.43486 18.0568 9.71908C17.9679 10.0034 17.8529 10.2313 17.7117 10.4027C17.5707 10.5742 17.3949 10.7184 17.1844 10.8357C16.9739 10.9528 16.7699 11.0376 16.5724 11.0895C16.3749 11.1416 16.1525 11.1808 15.9051 11.2069C16.1307 11.4021 16.2435 11.7102 16.2435 12.1313V13.6873C16.2435 13.7611 16.2543 13.8208 16.276 13.8663C16.2978 13.9119 16.3325 13.9433 16.3802 13.9608C16.4281 13.9781 16.4703 13.9889 16.5072 13.9932C16.5442 13.9976 16.5973 13.9998 16.6667 13.9998H18.1251C18.6415 13.9998 19.0832 13.8164 19.4498 13.4496C19.8166 13.0829 20 12.6412 20 12.1247V5.87498C19.9999 5.35852 19.8165 4.91677 19.4499 4.55008Z" fill="black"/>
<path d="M11.9791 11.2786C11.9488 11.3003 11.9531 11.335 11.9922 11.3827C12.0356 11.4261 12.0703 11.4327 12.0964 11.4022C12.1267 11.3806 12.1224 11.3459 12.0833 11.298C12.0399 11.2591 12.0052 11.2525 11.9791 11.2786Z" fill="black"/>
<path d="M11.7644 11.1159C11.7514 11.1463 11.7666 11.1724 11.81 11.194C11.8446 11.2158 11.8729 11.2115 11.8946 11.1811C11.9076 11.1506 11.8924 11.1245 11.849 11.1028C11.8056 11.0897 11.7774 11.0941 11.7644 11.1159Z" fill="black"/>
<path d="M12.181 11.5326C12.1419 11.5542 12.1419 11.5934 12.181 11.6497C12.2201 11.7062 12.2569 11.7214 12.2917 11.6953C12.3308 11.6649 12.3308 11.6236 12.2917 11.5715C12.257 11.5153 12.2201 11.5021 12.181 11.5326Z" fill="black"/>
<path d="M12.409 11.8254C12.3699 11.8602 12.3785 11.9013 12.435 11.9492C12.487 12.0012 12.5304 12.0077 12.5651 11.9686C12.5999 11.9339 12.5912 11.8927 12.5391 11.845C12.4871 11.793 12.4437 11.7864 12.409 11.8254Z" fill="black"/>
</g>
<defs>
<filter id="filter0_d" x="0" y="0" width="133" height="26" filterUnits="userSpaceOnUse" color-interpolation-filters="sRGB">
<feFlood flood-opacity="0" result="BackgroundImageFix"/>
<feColorMatrix in="SourceAlpha" type="matrix" values="0 0 0 0 0 0 0 0 0 0 0 0 0 0 0 0 0 0 127 0"/>
<feOffset dy="4"/>
<feGaussianBlur stdDeviation="2"/>
<feColorMatrix type="matrix" values="0 0 0 0 0 0 0 0 0 0 0 0 0 0 0 0 0 0 0.25 0"/>
<feBlend mode="normal" in2="BackgroundImageFix" result="effect1_dropShadow"/>
<feBlend mode="normal" in="SourceGraphic" in2="effect1_dropShadow" result="shape"/>
</filter>
</defs>
</svg>

